<svg width="205" height="19" viewBox="0 0 205 19" fill="none" xmlns="http://www.w3.org/2000/svg">
<path d="M6.62 15.2C5.28667 15.2 4.18 15.0133 3.3 14.64C2.42 14.2533 1.75333 13.7533 1.3 13.14C0.846667 12.5267 0.606667 11.8733 0.58 11.18C0.58 11.0733 0.62 10.98 0.7 10.9C0.793333 10.8067 0.9 10.76 1.02 10.76H3.54C3.72667 10.76 3.86667 10.7933 3.96 10.86C4.06667 10.9267 4.16 11.0133 4.24 11.12C4.34667 11.32 4.49333 11.5133 4.68 11.7C4.88 11.8867 5.13333 12.04 5.44 12.16C5.76 12.2667 6.15333 12.32 6.62 12.32C7.39333 12.32 7.97333 12.2 8.36 11.96C8.76 11.72 8.96 11.3933 8.96 10.98C8.96 10.6867 8.85333 10.4467 8.64 10.26C8.42667 10.06 8.08 9.88667 7.6 9.74C7.13333 9.58 6.50667 9.42 5.72 9.26C4.70667 9.04667 3.84 8.77333 3.12 8.44C2.41333 8.09333 1.87333 7.64667 1.5 7.1C1.12667 6.54 0.94 5.84667 0.94 5.02C0.94 4.20667 1.16667 3.48 1.62 2.84C2.08667 2.2 2.73333 1.7 3.56 1.34C4.38667 0.979999 5.36667 0.799999 6.5 0.799999C7.42 0.799999 8.22667 0.919999 8.92 1.16C9.62667 1.4 10.22 1.72 10.7 2.12C11.18 2.52 11.54 2.94667 11.78 3.4C12.0333 3.84 12.1667 4.27333 12.18 4.7C12.18 4.80667 12.14 4.90667 12.06 5C11.98 5.08 11.88 5.12 11.76 5.12H9.12C8.97333 5.12 8.84667 5.09333 8.74 5.04C8.63333 4.98667 8.54 4.9 8.46 4.78C8.38 4.48667 8.16667 4.23333 7.82 4.02C7.48667 3.79333 7.04667 3.68 6.5 3.68C5.91333 3.68 5.45333 3.78667 5.12 4C4.8 4.2 4.64 4.51333 4.64 4.94C4.64 5.20667 4.72667 5.44 4.9 5.64C5.08667 5.84 5.38667 6.01333 5.8 6.16C6.22667 6.30667 6.80667 6.46 7.54 6.62C8.75333 6.84667 9.73333 7.13333 10.48 7.48C11.2267 7.81333 11.7733 8.25333 12.12 8.8C12.4667 9.33333 12.64 10.0067 12.64 10.82C12.64 11.7267 12.38 12.5133 11.86 13.18C11.3533 13.8333 10.6467 14.3333 9.74 14.68C8.83333 15.0267 7.79333 15.2 6.62 15.2ZM19.2022 15.2C18.2155 15.2 17.3422 15.02 16.5822 14.66C15.8222 14.3 15.2155 13.78 14.7622 13.1C14.3222 12.4067 14.0822 11.58 14.0422 10.62C14.0289 10.4067 14.0222 10.14 14.0222 9.82C14.0222 9.48667 14.0289 9.21333 14.0422 9C14.0822 8.02667 14.3222 7.2 14.7622 6.52C15.2022 5.82667 15.8022 5.3 16.5622 4.94C17.3355 4.58 18.2155 4.4 19.2022 4.4C20.1222 4.4 20.9089 4.53333 21.5622 4.8C22.2155 5.05333 22.7489 5.37333 23.1622 5.76C23.5755 6.14667 23.8822 6.54667 24.0822 6.96C24.2955 7.36 24.4089 7.71333 24.4222 8.02C24.4355 8.15333 24.3889 8.27333 24.2822 8.38C24.1755 8.47333 24.0555 8.52 23.9222 8.52H21.3822C21.2355 8.52 21.1222 8.48667 21.0422 8.42C20.9622 8.35333 20.8889 8.25333 20.8222 8.12C20.6622 7.70667 20.4555 7.41333 20.2022 7.24C19.9622 7.06667 19.6489 6.98 19.2622 6.98C18.7289 6.98 18.3155 7.15333 18.0222 7.5C17.7422 7.84667 17.5889 8.38 17.5622 9.1C17.5489 9.63333 17.5489 10.1067 17.5622 10.52C17.5889 11.2533 17.7422 11.7867 18.0222 12.12C18.3155 12.4533 18.7289 12.62 19.2622 12.62C19.6755 12.62 20.0022 12.5333 20.2422 12.36C20.4822 12.1867 20.6755 11.8933 20.8222 11.48C20.8889 11.3467 20.9622 11.2467 21.0422 11.18C21.1222 11.1133 21.2355 11.08 21.3822 11.08H23.9222C24.0555 11.08 24.1755 11.1333 24.2822 11.24C24.3889 11.3333 24.4355 11.4467 24.4222 11.58C24.4089 11.8067 24.3422 12.0733 24.2222 12.38C24.1022 12.6733 23.9155 12.9867 23.6622 13.32C23.4089 13.6533 23.0755 13.9667 22.6622 14.26C22.2622 14.54 21.7755 14.7667 21.2022 14.94C20.6289 15.1133 19.9622 15.2 19.2022 15.2ZM26.7191 15C26.5724 15 26.4524 14.9533 26.3591 14.86C26.2657 14.7667 26.2191 14.6467 26.2191 14.5V5.1C26.2191 4.95333 26.2657 4.83333 26.3591 4.74C26.4524 4.64667 26.5724 4.6 26.7191 4.6H29.0791C29.2124 4.6 29.3257 4.64667 29.4191 4.74C29.5257 4.83333 29.5791 4.95333 29.5791 5.1V14.5C29.5791 14.6467 29.5257 14.7667 29.4191 14.86C29.3257 14.9533 29.2124 15 29.0791 15H26.7191ZM26.6991 3.1C26.5524 3.1 26.4324 3.05333 26.3391 2.96C26.2457 2.86667 26.1991 2.74667 26.1991 2.6V0.819999C26.1991 0.673333 26.2457 0.553333 26.3391 0.459999C26.4324 0.353333 26.5524 0.3 26.6991 0.3H29.0791C29.2257 0.3 29.3457 0.353333 29.4391 0.459999C29.5457 0.553333 29.5991 0.673333 29.5991 0.819999V2.6C29.5991 2.74667 29.5457 2.86667 29.4391 2.96C29.3457 3.05333 29.2257 3.1 29.0791 3.1H26.6991ZM36.8198 15.2C35.2465 15.2 33.9932 14.7733 33.0598 13.92C32.1265 13.0667 31.6398 11.8 31.5998 10.12C31.5998 10.0267 31.5998 9.90667 31.5998 9.76C31.5998 9.61333 31.5998 9.5 31.5998 9.42C31.6398 8.36667 31.8732 7.46667 32.2998 6.72C32.7398 5.96 33.3398 5.38667 34.0998 5C34.8732 4.6 35.7732 4.4 36.7998 4.4C37.9732 4.4 38.9398 4.63333 39.6998 5.1C40.4732 5.56667 41.0532 6.2 41.4398 7C41.8265 7.8 42.0198 8.71333 42.0198 9.74V10.22C42.0198 10.3667 41.9665 10.4867 41.8598 10.58C41.7665 10.6733 41.6532 10.72 41.5198 10.72H35.1198C35.1198 10.7333 35.1198 10.7533 35.1198 10.78C35.1198 10.8067 35.1198 10.8333 35.1198 10.86C35.1332 11.2467 35.1998 11.6 35.3198 11.92C35.4398 12.24 35.6265 12.4933 35.8798 12.68C36.1332 12.8667 36.4398 12.96 36.7998 12.96C37.0665 12.96 37.2865 12.92 37.4598 12.84C37.6465 12.7467 37.7998 12.6467 37.9198 12.54C38.0398 12.42 38.1332 12.32 38.1998 12.24C38.3198 12.1067 38.4132 12.0267 38.4798 12C38.5598 11.96 38.6798 11.94 38.8398 11.94H41.3198C41.4532 11.94 41.5598 11.98 41.6398 12.06C41.7332 12.1267 41.7732 12.2267 41.7598 12.36C41.7465 12.5867 41.6332 12.86 41.4198 13.18C41.2065 13.5 40.8932 13.82 40.4798 14.14C40.0798 14.4467 39.5732 14.7 38.9598 14.9C38.3465 15.1 37.6332 15.2 36.8198 15.2ZM35.1198 8.74H38.4998V8.7C38.4998 8.27333 38.4332 7.9 38.2998 7.58C38.1798 7.26 37.9865 7.01333 37.7198 6.84C37.4665 6.66667 37.1598 6.58 36.7998 6.58C36.4398 6.58 36.1332 6.66667 35.8798 6.84C35.6398 7.01333 35.4532 7.26 35.3198 7.58C35.1865 7.9 35.1198 8.27333 35.1198 8.7V8.74ZM44.3948 15C44.2482 15 44.1282 14.9533 44.0348 14.86C43.9415 14.7667 43.8948 14.6467 43.8948 14.5V5.1C43.8948 4.95333 43.9415 4.83333 44.0348 4.74C44.1282 4.64667 44.2482 4.6 44.3948 4.6H46.6948C46.8415 4.6 46.9615 4.64667 47.0548 4.74C47.1482 4.83333 47.1948 4.95333 47.1948 5.1V5.86C47.5415 5.44667 47.9948 5.1 48.5548 4.82C49.1148 4.54 49.7748 4.4 50.5348 4.4C51.3082 4.4 51.9882 4.57333 52.5748 4.92C53.1748 5.26667 53.6415 5.78 53.9748 6.46C54.3215 7.12667 54.4948 7.94667 54.4948 8.92V14.5C54.4948 14.6467 54.4415 14.7667 54.3348 14.86C54.2415 14.9533 54.1282 15 53.9948 15H51.4748C51.3415 15 51.2215 14.9533 51.1148 14.86C51.0215 14.7667 50.9748 14.6467 50.9748 14.5V9.04C50.9748 8.41333 50.8215 7.93333 50.5148 7.6C50.2215 7.25333 49.7815 7.08 49.1948 7.08C48.6482 7.08 48.2082 7.25333 47.8748 7.6C47.5548 7.93333 47.3948 8.41333 47.3948 9.04V14.5C47.3948 14.6467 47.3415 14.7667 47.2348 14.86C47.1415 14.9533 47.0282 15 46.8948 15H44.3948ZM61.9492 15C61.0959 15 60.3559 14.8667 59.7292 14.6C59.1159 14.32 58.6426 13.8933 58.3092 13.32C57.9759 12.7333 57.8092 11.98 57.8092 11.06V7.22H56.2492C56.1026 7.22 55.9759 7.17333 55.8692 7.08C55.7759 6.98667 55.7292 6.86667 55.7292 6.72V5.1C55.7292 4.95333 55.7759 4.83333 55.8692 4.74C55.9759 4.64667 56.1026 4.6 56.2492 4.6H57.8092V1.3C57.8092 1.15333 57.8559 1.03333 57.9492 0.94C58.0559 0.846666 58.1759 0.799999 58.3092 0.799999H60.6292C60.7759 0.799999 60.8959 0.846666 60.9892 0.94C61.0826 1.03333 61.1292 1.15333 61.1292 1.3V4.6H63.6292C63.7759 4.6 63.8959 4.64667 63.9892 4.74C64.0826 4.83333 64.1292 4.95333 64.1292 5.1V6.72C64.1292 6.86667 64.0826 6.98667 63.9892 7.08C63.8959 7.17333 63.7759 7.22 63.6292 7.22H61.1292V10.78C61.1292 11.2333 61.2159 11.5933 61.3892 11.86C61.5626 12.1267 61.8559 12.26 62.2692 12.26H63.8092C63.9559 12.26 64.0759 12.3067 64.1692 12.4C64.2626 12.4933 64.3092 12.6133 64.3092 12.76V14.5C64.3092 14.6467 64.2626 14.7667 64.1692 14.86C64.0759 14.9533 63.9559 15 63.8092 15H61.9492ZM66.4652 15C66.3185 15 66.1985 14.9533 66.1052 14.86C66.0118 14.7667 65.9652 14.6467 65.9652 14.5V5.1C65.9652 4.95333 66.0118 4.83333 66.1052 4.74C66.1985 4.64667 66.3185 4.6 66.4652 4.6H68.8252C68.9585 4.6 69.0718 4.64667 69.1652 4.74C69.2718 4.83333 69.3252 4.95333 69.3252 5.1V14.5C69.3252 14.6467 69.2718 14.7667 69.1652 14.86C69.0718 14.9533 68.9585 15 68.8252 15H66.4652ZM66.4452 3.1C66.2985 3.1 66.1785 3.05333 66.0852 2.96C65.9918 2.86667 65.9452 2.74667 65.9452 2.6V0.819999C65.9452 0.673333 65.9918 0.553333 66.0852 0.459999C66.1785 0.353333 66.2985 0.3 66.4452 0.3H68.8252C68.9718 0.3 69.0918 0.353333 69.1852 0.459999C69.2918 0.553333 69.3452 0.673333 69.3452 0.819999V2.6C69.3452 2.74667 69.2918 2.86667 69.1852 2.96C69.0918 3.05333 68.9718 3.1 68.8252 3.1H66.4452ZM73.3483 15C73.2149 15 73.0949 14.9533 72.9883 14.86C72.8949 14.7667 72.8483 14.6467 72.8483 14.5V7.22H71.3283C71.1816 7.22 71.0616 7.17333 70.9683 7.08C70.8749 6.98667 70.8283 6.86667 70.8283 6.72V5.1C70.8283 4.95333 70.8749 4.83333 70.9683 4.74C71.0616 4.64667 71.1816 4.6 71.3283 4.6H72.8483V3.96C72.8483 3.05333 73.0216 2.32667 73.3683 1.78C73.7283 1.22 74.2349 0.82 74.8883 0.58C75.5416 0.326666 76.3216 0.2 77.2283 0.2H82.3483C82.4816 0.2 82.5949 0.246666 82.6883 0.339999C82.7949 0.433333 82.8483 0.553333 82.8483 0.699999V2.32C82.8483 2.46667 82.7949 2.58667 82.6883 2.68C82.5949 2.77333 82.4816 2.82 82.3483 2.82H77.3883C76.9349 2.82 76.6149 2.92667 76.4283 3.14C76.2549 3.35333 76.1683 3.66 76.1683 4.06V4.6H82.3483C82.4816 4.6 82.5949 4.64667 82.6883 4.74C82.7949 4.83333 82.8483 4.95333 82.8483 5.1V14.5C82.8483 14.6467 82.7949 14.7667 82.6883 14.86C82.5949 14.9533 82.4816 15 82.3483 15H80.0283C79.8816 15 79.7616 14.9533 79.6683 14.86C79.5749 14.7667 79.5283 14.6467 79.5283 14.5V7.22H76.1683V14.5C76.1683 14.6467 76.1216 14.7667 76.0283 14.86C75.9349 14.9533 75.8149 15 75.6683 15H73.3483ZM90.0616 15.2C89.0749 15.2 88.2016 15.02 87.4416 14.66C86.6816 14.3 86.0749 13.78 85.6216 13.1C85.1816 12.4067 84.9416 11.58 84.9016 10.62C84.8882 10.4067 84.8816 10.14 84.8816 9.82C84.8816 9.48667 84.8882 9.21333 84.9016 9C84.9416 8.02667 85.1816 7.2 85.6216 6.52C86.0616 5.82667 86.6616 5.3 87.4216 4.94C88.1949 4.58 89.0749 4.4 90.0616 4.4C90.9816 4.4 91.7682 4.53333 92.4216 4.8C93.0749 5.05333 93.6082 5.37333 94.0216 5.76C94.4349 6.14667 94.7416 6.54667 94.9416 6.96C95.1549 7.36 95.2682 7.71333 95.2816 8.02C95.2949 8.15333 95.2482 8.27333 95.1416 8.38C95.0349 8.47333 94.9149 8.52 94.7816 8.52H92.2416C92.0949 8.52 91.9816 8.48667 91.9016 8.42C91.8216 8.35333 91.7482 8.25333 91.6816 8.12C91.5216 7.70667 91.3149 7.41333 91.0616 7.24C90.8216 7.06667 90.5082 6.98 90.1216 6.98C89.5882 6.98 89.1749 7.15333 88.8816 7.5C88.6016 7.84667 88.4482 8.38 88.4216 9.1C88.4082 9.63333 88.4082 10.1067 88.4216 10.52C88.4482 11.2533 88.6016 11.7867 88.8816 12.12C89.1749 12.4533 89.5882 12.62 90.1216 12.62C90.5349 12.62 90.8616 12.5333 91.1016 12.36C91.3416 12.1867 91.5349 11.8933 91.6816 11.48C91.7482 11.3467 91.8216 11.2467 91.9016 11.18C91.9816 11.1133 92.0949 11.08 92.2416 11.08H94.7816C94.9149 11.08 95.0349 11.1333 95.1416 11.24C95.2482 11.3333 95.2949 11.4467 95.2816 11.58C95.2682 11.8067 95.2016 12.0733 95.0816 12.38C94.9616 12.6733 94.7749 12.9867 94.5216 13.32C94.2682 13.6533 93.9349 13.9667 93.5216 14.26C93.1216 14.54 92.6349 14.7667 92.0616 14.94C91.4882 15.1133 90.8216 15.2 90.0616 15.2Z" fill="#147E45"/>
<path d="M97.7984 15C97.6518 15 97.5318 14.9533 97.4384 14.86C97.3451 14.7667 97.2984 14.6467 97.2984 14.5V1.5C97.2984 1.35333 97.3451 1.23333 97.4384 1.14C97.5318 1.04667 97.6518 0.999999 97.7984 0.999999H107.138C107.285 0.999999 107.405 1.04667 107.498 1.14C107.592 1.23333 107.638 1.35333 107.638 1.5V3.38C107.638 3.52667 107.592 3.64667 107.498 3.74C107.405 3.83333 107.285 3.88 107.138 3.88H100.758V6.58H106.698C106.845 6.58 106.965 6.63333 107.058 6.74C107.152 6.83333 107.198 6.95333 107.198 7.1V8.84C107.198 8.97333 107.152 9.09333 107.058 9.2C106.965 9.29333 106.845 9.34 106.698 9.34H100.758V12.12H107.298C107.445 12.12 107.565 12.1667 107.658 12.26C107.752 12.3533 107.798 12.4733 107.798 12.62V14.5C107.798 14.6467 107.752 14.7667 107.658 14.86C107.565 14.9533 107.445 15 107.298 15H97.7984ZM117.113 18.8C116.967 18.8 116.847 18.7533 116.753 18.66C116.66 18.5667 116.613 18.4467 116.613 18.3V13.86C116.307 14.2867 115.907 14.62 115.413 14.86C114.92 15.0867 114.347 15.2 113.693 15.2C113.04 15.2 112.453 15.0933 111.933 14.88C111.413 14.6533 110.973 14.34 110.613 13.94C110.253 13.54 109.973 13.0533 109.773 12.48C109.573 11.9067 109.46 11.26 109.433 10.54C109.42 10.2733 109.413 10.0267 109.413 9.8C109.413 9.57333 109.42 9.32667 109.433 9.06C109.473 8.31333 109.593 7.65333 109.793 7.08C109.993 6.50667 110.273 6.02 110.633 5.62C110.993 5.22 111.427 4.92 111.933 4.72C112.453 4.50667 113.04 4.4 113.693 4.4C114.44 4.4 115.067 4.54 115.573 4.82C116.08 5.08667 116.487 5.42667 116.793 5.84V5.1C116.793 4.95333 116.84 4.83333 116.933 4.74C117.04 4.64667 117.16 4.6 117.293 4.6H119.553C119.7 4.6 119.82 4.64667 119.913 4.74C120.007 4.83333 120.053 4.95333 120.053 5.1V18.3C120.053 18.4467 120.007 18.5667 119.913 18.66C119.82 18.7533 119.7 18.8 119.553 18.8H117.113ZM114.773 12.52C115.187 12.52 115.527 12.4333 115.793 12.26C116.06 12.0733 116.26 11.84 116.393 11.56C116.527 11.2667 116.6 10.9533 116.613 10.62C116.64 10.3533 116.653 10.1 116.653 9.86C116.653 9.62 116.64 9.37333 116.613 9.12C116.6 8.76 116.533 8.42667 116.413 8.12C116.293 7.81333 116.1 7.56667 115.833 7.38C115.567 7.18 115.213 7.08 114.773 7.08C114.333 7.08 113.98 7.17333 113.713 7.36C113.46 7.54667 113.273 7.8 113.153 8.12C113.047 8.44 112.98 8.79333 112.953 9.18C112.927 9.59333 112.927 10.0067 112.953 10.42C112.98 10.8067 113.047 11.16 113.153 11.48C113.273 11.8 113.46 12.0533 113.713 12.24C113.98 12.4267 114.333 12.52 114.773 12.52ZM126.23 15.2C125.47 15.2 124.79 15.0267 124.19 14.68C123.604 14.3333 123.144 13.8267 122.81 13.16C122.477 12.48 122.31 11.6533 122.31 10.68V5.1C122.31 4.95333 122.357 4.83333 122.45 4.74C122.544 4.64667 122.664 4.6 122.81 4.6H125.31C125.457 4.6 125.577 4.64667 125.67 4.74C125.764 4.83333 125.81 4.95333 125.81 5.1V10.56C125.81 11.8667 126.397 12.52 127.57 12.52C128.117 12.52 128.55 12.3533 128.87 12.02C129.204 11.6733 129.37 11.1867 129.37 10.56V5.1C129.37 4.95333 129.417 4.83333 129.51 4.74C129.604 4.64667 129.724 4.6 129.87 4.6H132.37C132.517 4.6 132.637 4.64667 132.73 4.74C132.824 4.83333 132.87 4.95333 132.87 5.1V14.5C132.87 14.6467 132.824 14.7667 132.73 14.86C132.637 14.9533 132.517 15 132.37 15H130.05C129.917 15 129.797 14.9533 129.69 14.86C129.597 14.7667 129.55 14.6467 129.55 14.5V13.74C129.204 14.22 128.75 14.5867 128.19 14.84C127.644 15.08 126.99 15.2 126.23 15.2ZM135.723 15C135.576 15 135.456 14.9533 135.363 14.86C135.27 14.7667 135.223 14.6467 135.223 14.5V5.1C135.223 4.95333 135.27 4.83333 135.363 4.74C135.456 4.64667 135.576 4.6 135.723 4.6H138.083C138.216 4.6 138.33 4.64667 138.423 4.74C138.53 4.83333 138.583 4.95333 138.583 5.1V14.5C138.583 14.6467 138.53 14.7667 138.423 14.86C138.33 14.9533 138.216 15 138.083 15H135.723ZM135.703 3.1C135.556 3.1 135.436 3.05333 135.343 2.96C135.25 2.86667 135.203 2.74667 135.203 2.6V0.819999C135.203 0.673333 135.25 0.553333 135.343 0.459999C135.436 0.353333 135.556 0.3 135.703 0.3H138.083C138.23 0.3 138.35 0.353333 138.443 0.459999C138.55 0.553333 138.603 0.673333 138.603 0.819999V2.6C138.603 2.74667 138.55 2.86667 138.443 2.96C138.35 3.05333 138.23 3.1 138.083 3.1H135.703ZM142.051 18.8C141.904 18.8 141.784 18.7533 141.691 18.66C141.598 18.5667 141.551 18.4467 141.551 18.3V5.1C141.551 4.95333 141.598 4.83333 141.691 4.74C141.784 4.64667 141.904 4.6 142.051 4.6H144.311C144.444 4.6 144.558 4.64667 144.651 4.74C144.758 4.83333 144.811 4.95333 144.811 5.1V5.84C145.118 5.42667 145.524 5.08667 146.031 4.82C146.538 4.54 147.164 4.4 147.911 4.4C148.578 4.4 149.164 4.50667 149.671 4.72C150.178 4.92 150.611 5.22 150.971 5.62C151.331 6.02 151.611 6.50667 151.811 7.08C152.024 7.65333 152.144 8.31333 152.171 9.06C152.184 9.32667 152.191 9.57333 152.191 9.8C152.191 10.0267 152.184 10.2733 152.171 10.54C152.144 11.26 152.031 11.9067 151.831 12.48C151.631 13.0533 151.351 13.54 150.991 13.94C150.631 14.34 150.191 14.6533 149.671 14.88C149.164 15.0933 148.578 15.2 147.911 15.2C147.258 15.2 146.684 15.0867 146.191 14.86C145.711 14.62 145.311 14.2867 144.991 13.86V18.3C144.991 18.4467 144.944 18.5667 144.851 18.66C144.758 18.7533 144.638 18.8 144.491 18.8H142.051ZM146.831 12.52C147.284 12.52 147.638 12.4267 147.891 12.24C148.144 12.0533 148.324 11.8 148.431 11.48C148.551 11.16 148.624 10.8067 148.651 10.42C148.678 10.0067 148.678 9.59333 148.651 9.18C148.624 8.79333 148.551 8.44 148.431 8.12C148.324 7.8 148.144 7.54667 147.891 7.36C147.638 7.17333 147.284 7.08 146.831 7.08C146.391 7.08 146.038 7.18 145.771 7.38C145.504 7.56667 145.311 7.81333 145.191 8.12C145.071 8.42667 145.004 8.76 144.991 9.12C144.978 9.37333 144.971 9.62 144.971 9.86C144.971 10.1 144.978 10.3533 144.991 10.62C145.004 10.9533 145.078 11.2667 145.211 11.56C145.344 11.84 145.544 12.0733 145.811 12.26C146.078 12.4333 146.418 12.52 146.831 12.52ZM154.668 15C154.522 15 154.402 14.9533 154.308 14.86C154.215 14.7667 154.168 14.6467 154.168 14.5V5.1C154.168 4.95333 154.215 4.83333 154.308 4.74C154.402 4.64667 154.522 4.6 154.668 4.6H156.848C156.995 4.6 157.115 4.64667 157.208 4.74C157.302 4.83333 157.348 4.95333 157.348 5.1V5.78C157.615 5.42 157.988 5.10667 158.468 4.84C158.948 4.56 159.515 4.41333 160.168 4.4C161.702 4.37333 162.755 4.95333 163.328 6.14C163.635 5.63333 164.075 5.22 164.648 4.9C165.222 4.56667 165.848 4.4 166.528 4.4C167.222 4.4 167.842 4.56 168.388 4.88C168.948 5.18667 169.395 5.66667 169.728 6.32C170.062 6.96 170.228 7.79333 170.228 8.82V14.5C170.228 14.6467 170.175 14.7667 170.068 14.86C169.975 14.9533 169.862 15 169.728 15H167.408C167.262 15 167.135 14.9533 167.028 14.86C166.935 14.7667 166.888 14.6467 166.888 14.5V8.96C166.888 8.49333 166.822 8.12667 166.688 7.86C166.555 7.58 166.375 7.38 166.148 7.26C165.922 7.14 165.662 7.08 165.368 7.08C165.128 7.08 164.888 7.14 164.648 7.26C164.422 7.38 164.235 7.58 164.088 7.86C163.955 8.12667 163.888 8.49333 163.888 8.96V14.5C163.888 14.6467 163.842 14.7667 163.748 14.86C163.655 14.9533 163.535 15 163.388 15H161.068C160.922 15 160.802 14.9533 160.708 14.86C160.615 14.7667 160.568 14.6467 160.568 14.5V8.96C160.568 8.49333 160.495 8.12667 160.348 7.86C160.202 7.58 160.015 7.38 159.788 7.26C159.562 7.14 159.308 7.08 159.028 7.08C158.788 7.08 158.548 7.14 158.308 7.26C158.082 7.38 157.895 7.58 157.748 7.86C157.615 8.12667 157.548 8.48667 157.548 8.94V14.5C157.548 14.6467 157.495 14.7667 157.388 14.86C157.295 14.9533 157.175 15 157.028 15H154.668ZM177.269 15.2C175.696 15.2 174.442 14.7733 173.509 13.92C172.576 13.0667 172.089 11.8 172.049 10.12C172.049 10.0267 172.049 9.90667 172.049 9.76C172.049 9.61333 172.049 9.5 172.049 9.42C172.089 8.36667 172.322 7.46667 172.749 6.72C173.189 5.96 173.789 5.38667 174.549 5C175.322 4.6 176.222 4.4 177.249 4.4C178.422 4.4 179.389 4.63333 180.149 5.1C180.922 5.56667 181.502 6.2 181.889 7C182.276 7.8 182.469 8.71333 182.469 9.74V10.22C182.469 10.3667 182.416 10.4867 182.309 10.58C182.216 10.6733 182.102 10.72 181.969 10.72H175.569C175.569 10.7333 175.569 10.7533 175.569 10.78C175.569 10.8067 175.569 10.8333 175.569 10.86C175.582 11.2467 175.649 11.6 175.769 11.92C175.889 12.24 176.076 12.4933 176.329 12.68C176.582 12.8667 176.889 12.96 177.249 12.96C177.516 12.96 177.736 12.92 177.909 12.84C178.096 12.7467 178.249 12.6467 178.369 12.54C178.489 12.42 178.582 12.32 178.649 12.24C178.769 12.1067 178.862 12.0267 178.929 12C179.009 11.96 179.129 11.94 179.289 11.94H181.769C181.902 11.94 182.009 11.98 182.089 12.06C182.182 12.1267 182.222 12.2267 182.209 12.36C182.196 12.5867 182.082 12.86 181.869 13.18C181.656 13.5 181.342 13.82 180.929 14.14C180.529 14.4467 180.022 14.7 179.409 14.9C178.796 15.1 178.082 15.2 177.269 15.2ZM175.569 8.74H178.949V8.7C178.949 8.27333 178.882 7.9 178.749 7.58C178.629 7.26 178.436 7.01333 178.169 6.84C177.916 6.66667 177.609 6.58 177.249 6.58C176.889 6.58 176.582 6.66667 176.329 6.84C176.089 7.01333 175.902 7.26 175.769 7.58C175.636 7.9 175.569 8.27333 175.569 8.7V8.74ZM184.844 15C184.697 15 184.577 14.9533 184.484 14.86C184.391 14.7667 184.344 14.6467 184.344 14.5V5.1C184.344 4.95333 184.391 4.83333 184.484 4.74C184.577 4.64667 184.697 4.6 184.844 4.6H187.144C187.291 4.6 187.411 4.64667 187.504 4.74C187.597 4.83333 187.644 4.95333 187.644 5.1V5.86C187.991 5.44667 188.444 5.1 189.004 4.82C189.564 4.54 190.224 4.4 190.984 4.4C191.757 4.4 192.437 4.57333 193.024 4.92C193.624 5.26667 194.091 5.78 194.424 6.46C194.771 7.12667 194.944 7.94667 194.944 8.92V14.5C194.944 14.6467 194.891 14.7667 194.784 14.86C194.691 14.9533 194.577 15 194.444 15H191.924C191.791 15 191.671 14.9533 191.564 14.86C191.471 14.7667 191.424 14.6467 191.424 14.5V9.04C191.424 8.41333 191.271 7.93333 190.964 7.6C190.671 7.25333 190.231 7.08 189.644 7.08C189.097 7.08 188.657 7.25333 188.324 7.6C188.004 7.93333 187.844 8.41333 187.844 9.04V14.5C187.844 14.6467 187.791 14.7667 187.684 14.86C187.591 14.9533 187.477 15 187.344 15H184.844ZM202.398 15C201.545 15 200.805 14.8667 200.178 14.6C199.565 14.32 199.092 13.8933 198.758 13.32C198.425 12.7333 198.258 11.98 198.258 11.06V7.22H196.698C196.552 7.22 196.425 7.17333 196.318 7.08C196.225 6.98667 196.178 6.86667 196.178 6.72V5.1C196.178 4.95333 196.225 4.83333 196.318 4.74C196.425 4.64667 196.552 4.6 196.698 4.6H198.258V1.3C198.258 1.15333 198.305 1.03333 198.398 0.94C198.505 0.846666 198.625 0.799999 198.758 0.799999H201.078C201.225 0.799999 201.345 0.846666 201.438 0.94C201.532 1.03333 201.578 1.15333 201.578 1.3V4.6H204.078C204.225 4.6 204.345 4.64667 204.438 4.74C204.532 4.83333 204.578 4.95333 204.578 5.1V6.72C204.578 6.86667 204.532 6.98667 204.438 7.08C204.345 7.17333 204.225 7.22 204.078 7.22H201.578V10.78C201.578 11.2333 201.665 11.5933 201.838 11.86C202.012 12.1267 202.305 12.26 202.718 12.26H204.258C204.405 12.26 204.525 12.3067 204.618 12.4C204.712 12.4933 204.758 12.6133 204.758 12.76V14.5C204.758 14.6467 204.712 14.7667 204.618 14.86C204.525 14.9533 204.405 15 204.258 15H202.398Z" fill="#0B132A"/>
</svg>
